<svg xmlns="http://www.w3.org/2000/svg" viewBox="0 0 25 28">
  <g fill="#ffffff" fill-rule="nonzero">
    <path d="M13.778 27.99c-.252 0-.506-.056-.735-.163a6.913 6.913 0 01-3.37-3.068c-1.735-.095-7.613-.866-8.845-6.927a9.197 9.197 0 01.577-5.57c.07-4.27 1.918-8.36 5.078-11.232A1.757 1.757 0 018.464.772a17.844 17.844 0 014.425 3.183A1249.02 1249.02 0 0123.891.447a.87.87 0 011.097.574c.07.223.049.46-.061.667a.87.87 0 01-.514.43c-.033.01-1.809.565-4.474 1.412a7.615 7.615 0 01-1.22 7.035c-1.424 1.805-3.42 2.167-5.35 2.516-1.757.318-3.275.592-4.282 1.869a4.348 4.348 0 00-.711 3.623.872.872 0 01-.85 1.083.873.873 0 01-.85-.666 6.118 6.118 0 011.02-5.103c1.436-1.819 3.432-2.18 5.361-2.53 1.757-.318 3.275-.592 4.282-1.868a5.86 5.86 0 00.932-5.428 1099.433 1099.433 0 00-6.617 2.135c-6.496 2.12-10.072 6.55-9.112 11.287.484 2.384 1.895 4.037 4.192 4.912a9.943 9.943 0 003.355.626c.052 0 .131-.003.137-.003.344 0 .655.206.795.522a5.186 5.186 0 002.73 2.686l.034.011a11.29 11.29 0 011.162-5.597 10.02 10.02 0 00-3.726 1.424.873.873 0 01-1.207-.273.876.876 0 01.273-1.207 11.787 11.787 0 014.415-1.676 1.754 1.754 0 011.982 1.528c.04.338-.02.677-.169.98a9.622 9.622 0 00-.99 4.735 1.73 1.73 0 01-.45 1.259 1.735 1.735 0 01-1.208.575c-.03.005-.058.005-.089.005zM7.658 2.328a13.797 13.797 0 00-4.037 6.647c1.795-1.88 4.306-3.384 7.368-4.4A16.173 16.173 0 007.666 2.33l-.007-.002h-.001z"/>
    <path d="M14.09 9.158a.872.872 0 01-.155-.014 1.315 1.315 0 01-1.143-1.136.866.866 0 01-.015-.162c0-.666.497-1.222 1.16-1.3a.954.954 0 01.306 0c.598.07 1.075.548 1.145 1.147a.954.954 0 010 .304 1.315 1.315 0 01-1.143 1.147.862.862 0 01-.155.014z"/>
  </g>
</svg>
