<svg xmlns="http://www.w3.org/2000/svg" viewBox="0 0 29 29">
  <g transform="translate(1)" stroke="#ffffff" stroke-width="1.5" fill="none" fill-rule="evenodd" stroke-linecap="round" stroke-linejoin="round">
    <path d="M24.986 14.923c.882 0 2.649 1.766 1.765 4.415a3.624 3.624 0 01-6.18.883c-1.766-2.65-.883-5.298.883-9.712 1.182-2.961.883-9.606-7.941-9.606s-9.13 6.645-7.952 9.606c1.766 4.414 2.65 7.06.884 9.712a3.625 3.625 0 01-6.18-.883c-.883-2.649.882-4.415 1.764-4.415"/>
    <circle cx="10.417" cy="11.833" r="1"/>
    <circle cx="16.598" cy="11.833" r="1"/>
    <path d="M10.86 18.562a11.048 11.048 0 01-2.3 6.395c-3.882 4.724-7.183 1.381-5.648-.04M16.156 18.562c.076 2.32.88 4.557 2.3 6.395 3.882 4.724 7.182 1.381 5.647-.04"/>
  </g>
</svg>
