<svg xmlns="http://www.w3.org/2000/svg" viewBox="0 0 28 28">
  <g stroke="#ffffff" stroke-width="1.5" fill="none" fill-rule="evenodd" stroke-linecap="round" stroke-linejoin="round">
    <path d="M23.846 23.845s4.368-6.116 2.62-9.61c-1.63-3.262-1.739-5.001.39-11.62a1.235 1.235 0 00-1.137-1.612A24.32 24.32 0 001.003 25.71a1.237 1.237 0 001.614 1.137c6.618-2.127 8.357-2.02 11.622-.387 3.493 1.752 9.607-2.614 9.607-2.614zM6.377 18.604l1.746-3.495M9.871 20.35l1.747-3.494M18.605 6.374l-3.493 1.748M20.353 9.868l-3.494 1.747M5.775 10.823a5.915 5.915 0 01-3.766-3.576M10.826 5.78A5.915 5.915 0 007.25 2.006"/>
  </g>
</svg>
