<svg xmlns="http://www.w3.org/2000/svg" viewBox="0 0 28 28">
  <g stroke="#ffffff" stroke-width="1.5" fill="none" fill-rule="evenodd" stroke-linecap="round" stroke-linejoin="round">
    <ellipse cx="14" cy="18.375" rx="7" ry="8.75"/>
    <path d="M12.25 9.876c.055-2.822-.875-3.693-.875-5.501 0-1.933 1.75-3.5 2.625-3.5s2.625 1.567 2.625 3.5c0 1.805-.933 2.683-.873 5.5M9.633 11.405c-.416-1.676-1.662-3.53-3.508-3.53-2.625 0-5.25 3.5-5.25 7.875 1.4.11 2.748-.563 3.5-1.75M18.367 11.405c.416-1.676 1.662-3.53 3.508-3.53 2.625 0 5.25 3.5 5.25 7.875a3.792 3.792 0 01-3.5-1.75M7.17 20.204c-1.534-.72-3.32-.779-4.02.796a5.942 5.942 0 00.77 6.125s1.538 0 1.538-2.625M20.83 20.204c1.534-.72 3.32-.779 4.02.796a5.942 5.942 0 01-.77 6.125s-1.538 0-1.538-2.625M8.398 12.949L14 15.75l5.602-2.801M12.711 15.105l-4.962 6.946M15.289 15.105l4.962 6.946M9.487 19.619L14 21.875l4.513-2.256M13.364 21.556l-2.911 3.881M14.7 21.525l2.19 4.38"/>
  </g>
</svg>
