<svg xmlns="http://www.w3.org/2000/svg" viewBox="0 0 30 30">
  <g stroke="#ffffff" stroke-width="1.5" fill="none" fill-rule="evenodd" stroke-linecap="round" stroke-linejoin="round">
    <path d="M14.97 29C6.35 29 1.701 23.363 1.024 18.768a1.941 1.941 0 01.713-1.834 9.755 9.755 0 015.748-2.159h14.966c3.742 0 3.742-4.741 0-4.741h-1.31a.933.933 0 01-.826-.52.958.958 0 01.079-.984 5.62 5.62 0 014.863-2.29 4.649 4.649 0 012.319-4.1.923.923 0 01.946-.019.95.95 0 01.477.828v14.667a11.063 11.063 0 01-4.295 8.167M3 5a4 4 0 118 0"/>
    <path d="M19 4.636C19 2.628 17.21 1 15 1s-4 1.628-4 3.636V11M1 20h5.375c4.673 0 6.542 3.64 10.28 4.55 0 0 .291 1.963 3.738 3.641 3.738 1.82 5.607 0 5.607 0l-3.738-5.46M15.313 18.313c.207 0 .374.167.374.375M15.313 18.688c0-.208.167-.375.374-.375M15.688 19.688a.375.375 0 01-.376-.375M15.688 19.313a.375.375 0 01-.376.375"/>
  </g>
</svg>
