<svg xmlns="http://www.w3.org/2000/svg" viewBox="0 0 22 22">
  <path d="M19.8 4.177c-1.177-.027-2.112-.968-2.1-2.111C17.714.923 18.67.002 19.846 0a2.215 2.215 0 011.54.649c.404.406.624.952.614 1.516-.044 1.143-1.024 2.04-2.2 2.012zM2.1 22c-1.177-.026-2.113-.968-2.1-2.112.014-1.145.973-2.065 2.15-2.065 1.208.022 2.169.99 2.15 2.162-.042 1.144-1.023 2.042-2.2 2.015zm3.827-7.595a6.09 6.09 0 01-.987-3.328C4.884 7.767 7.594 5.038 11 4.974a6 6 0 013.303.993l2.34-2.355a9.232 9.232 0 00-5.65-1.926c-5.245.091-9.422 4.297-9.328 9.394a9.372 9.372 0 001.916 5.682l2.346-2.358zm10.146-6.656c.648.996.99 2.15.988 3.328.056 3.311-2.66 6.041-6.068 6.1a5.989 5.989 0 01-3.3-.993l-2.34 2.356a9.244 9.244 0 005.64 1.93 9.632 9.632 0 006.668-2.82 9.092 9.092 0 002.662-6.575 9.369 9.369 0 00-1.914-5.683l-2.336 2.357z" fill="#ffffff" fill-rule="evenodd"/>
</svg>
