<svg xmlns="http://www.w3.org/2000/svg" viewBox="0 0 155 35">
  <g fill-rule="nonzero" fill="none">
    <g>
      <rect fill="#f2fbfc" width="35" height="35" rx="6"/>
      <path d="M26.808 10.34a2.189 2.189 0 01-2.132-2.215 2.188 2.188 0 012.18-2.168c.59.01 1.153.254 1.563.681.41.427.634 1 .623 1.591a2.188 2.188 0 01-2.234 2.112zM8.834 29.043a2.187 2.187 0 01-2.132-2.216 2.188 2.188 0 012.184-2.167 2.229 2.229 0 012.182 2.269 2.188 2.188 0 01-2.234 2.114zm3.887-7.97a6.546 6.546 0 01-1.002-3.492c-.057-3.472 2.695-6.336 6.154-6.403a5.954 5.954 0 013.353 1.042l2.376-2.471a9.182 9.182 0 00-5.736-2.021c-5.327.095-9.569 4.509-9.473 9.857a10.05 10.05 0 001.946 5.963l2.382-2.475zm10.303-6.984a6.535 6.535 0 011.003 3.492c.057 3.474-2.7 6.339-6.161 6.401a5.942 5.942 0 01-3.353-1.042l-2.375 2.472a9.194 9.194 0 005.728 2.025 9.628 9.628 0 006.77-2.959 9.709 9.709 0 002.704-6.9 10.047 10.047 0 00-1.944-5.963l-2.372 2.474z" fill="#00c0d2"/>
    </g>
    <path d="M45.155 24.5V10.871h3.311V24.5h-3.31zm18.118-1.887a6.487 6.487 0 01-2.233 1.646c-.885.405-1.905.607-3.06.607-1.053 0-2.025-.173-2.917-.52a6.85 6.85 0 01-2.32-1.473 6.82 6.82 0 01-1.54-2.28c-.372-.886-.558-1.862-.558-2.927 0-1.09.19-2.079.568-2.964a6.595 6.595 0 011.57-2.262 6.948 6.948 0 012.348-1.434 8.283 8.283 0 012.906-.5c.963 0 1.91.17 2.84.51.93.34 1.684.837 2.262 1.491l-2.233 2.233a2.764 2.764 0 00-1.213-.943 4.022 4.022 0 00-1.54-.308 3.9 3.9 0 00-1.588.318 3.725 3.725 0 00-1.242.875 3.99 3.99 0 00-.808 1.32 4.654 4.654 0 00-.29 1.664c0 .616.097 1.18.29 1.694.192.514.458.953.798 1.319s.748.651 1.223.857c.475.205.994.307 1.56.307.654 0 1.225-.128 1.712-.384.488-.257.88-.59 1.175-1.002l2.29 2.156zm15.385-4.985c0 1.078-.186 2.063-.558 2.955a6.728 6.728 0 01-1.55 2.29 6.895 6.895 0 01-2.358 1.473c-.911.347-1.9.52-2.965.52s-2.05-.173-2.954-.52a6.914 6.914 0 01-2.349-1.473 6.728 6.728 0 01-1.55-2.29c-.372-.892-.558-1.877-.558-2.955 0-1.091.186-2.076.558-2.955a6.47 6.47 0 011.55-2.243 6.904 6.904 0 012.349-1.424c.904-.334 1.89-.5 2.954-.5 1.066 0 2.054.166 2.965.5a6.886 6.886 0 012.358 1.424 6.47 6.47 0 011.55 2.243c.372.879.558 1.864.558 2.955zm-3.523 0c0-.59-.096-1.142-.289-1.656a3.945 3.945 0 00-.798-1.318 3.688 3.688 0 00-1.232-.867 3.9 3.9 0 00-1.589-.317c-.577 0-1.103.106-1.578.317-.475.212-.886.5-1.232.867a3.747 3.747 0 00-.799 1.318 4.821 4.821 0 00-.279 1.656c0 .616.096 1.184.289 1.703.192.52.458.966.799 1.338.34.372.747.664 1.222.876a3.833 3.833 0 001.578.318c.578 0 1.104-.106 1.579-.318a3.752 3.752 0 001.232-.876 3.95 3.95 0 00.808-1.338 4.87 4.87 0 00.29-1.703zM89.5 24.5l-5.487-8.913h-.057l.077 8.913h-3.196V10.871h3.754l5.467 8.894h.058l-.077-8.894h3.195V24.5H89.5zm7.761-13.629h4.158c.732 0 1.399.074 2.002.221.603.148 1.117.376 1.54.684.424.308.75.7.982 1.174.23.475.346 1.046.346 1.713 0 .68-.125 1.264-.375 1.752s-.597.885-1.04 1.194a4.653 4.653 0 01-1.578.683 8.371 8.371 0 01-1.973.221h-2.156V24.5H97.26V10.871zm1.906 6.025h2.021c.462 0 .889-.041 1.28-.125a3.19 3.19 0 001.01-.385c.283-.173.501-.4.655-.683.154-.283.231-.63.231-1.04 0-.41-.08-.754-.24-1.03-.16-.276-.379-.5-.655-.673a2.795 2.795 0 00-.991-.366 6.945 6.945 0 00-1.251-.106h-2.06v4.408zm16.266 7.604h-1.906V10.871h4.37a8.37 8.37 0 011.867.202c.59.135 1.107.35 1.55.645.443.295.792.683 1.05 1.165.256.48.384 1.068.384 1.761 0 1.001-.308 1.81-.924 2.426-.616.616-1.412 1.007-2.387 1.174l3.812 6.256h-2.31l-3.465-6.064h-2.04V24.5zm0-7.662h2.195c.449 0 .866-.038 1.25-.115a3.15 3.15 0 001.012-.375c.288-.174.516-.398.683-.674.167-.276.25-.62.25-1.03 0-.41-.083-.754-.25-1.03a1.935 1.935 0 00-.664-.664 2.912 2.912 0 00-.972-.356 6.294 6.294 0 00-1.175-.106h-2.329v4.35zm16.27 2.291a3.441 3.441 0 00-.183-1.01 2.32 2.32 0 00-.48-.819 2.262 2.262 0 00-.79-.548 2.794 2.794 0 00-1.107-.202 2.925 2.925 0 00-1.973.75 2.89 2.89 0 00-.616.819 2.61 2.61 0 00-.28 1.01h5.43zm1.829.732v.308c0 .102-.006.205-.02.308h-7.237c.013.385.1.747.26 1.087.16.34.375.636.645.886a3.004 3.004 0 002.06.799c.615 0 1.148-.135 1.597-.404a3.26 3.26 0 001.059-.982l1.27 1.02c-.487.642-1.062 1.113-1.723 1.415-.66.301-1.395.452-2.204.452a5.237 5.237 0 01-1.925-.346 4.448 4.448 0 01-1.52-.972 4.506 4.506 0 01-1.001-1.511 5.097 5.097 0 01-.366-1.964c0-.706.118-1.357.356-1.954a4.472 4.472 0 01.991-1.53 4.538 4.538 0 011.502-.992 4.863 4.863 0 011.867-.356c.667 0 1.274.11 1.82.328a3.75 3.75 0 011.385.943c.379.41.67.908.876 1.492.205.584.308 1.241.308 1.973zm4.335 9.259h-1.81V15.375h1.772V16.8h.057c.296-.488.729-.889 1.3-1.203.57-.315 1.235-.472 1.992-.472.68 0 1.3.122 1.858.366a4.28 4.28 0 011.443 1.02c.405.437.716.947.934 1.53.218.585.327 1.21.327 1.878 0 .667-.109 1.296-.327 1.886a4.65 4.65 0 01-.924 1.54c-.398.436-.879.78-1.444 1.03-.564.25-1.2.375-1.905.375-.655 0-1.27-.14-1.848-.423a3.344 3.344 0 01-1.367-1.194h-.058v5.987zm6.006-9.201c0-.424-.064-.835-.192-1.233a3.143 3.143 0 00-.578-1.058 2.765 2.765 0 00-.953-.732c-.378-.18-.818-.27-1.318-.27a2.904 2.904 0 00-2.233 1.002c-.27.308-.478.66-.626 1.058a3.568 3.568 0 00-.221 1.252c0 .436.073.853.221 1.251.148.398.356.748.626 1.05.27.3.593.541.972.721.378.18.799.27 1.26.27.501 0 .94-.094 1.32-.28a2.87 2.87 0 00.952-.74c.257-.309.45-.662.578-1.06.128-.397.192-.808.192-1.231zm9.321-2.233a2.366 2.366 0 00-.866-.819 2.485 2.485 0 00-1.252-.317c-.205 0-.41.022-.616.067a1.81 1.81 0 00-.548.212 1.17 1.17 0 00-.385.366.984.984 0 00-.145.548c0 .385.174.67.52.857.347.186.866.356 1.56.51.436.103.84.225 1.212.366.372.14.696.317.972.53.276.21.491.464.645.76.154.295.231.641.231 1.039 0 .539-.102.995-.308 1.367a2.673 2.673 0 01-.818.914c-.34.238-.728.408-1.165.51a5.864 5.864 0 01-1.347.154c-.693 0-1.37-.134-2.03-.404-.662-.27-1.21-.68-1.647-1.232l1.29-1.097c.244.36.58.66 1.01.905.43.243.902.365 1.415.365.231 0 .453-.022.665-.067.211-.045.404-.119.577-.221a1.19 1.19 0 00.414-.405c.103-.167.154-.378.154-.635 0-.424-.202-.738-.606-.943-.405-.206-.998-.398-1.781-.578-.308-.077-.62-.17-.934-.279-.314-.109-.6-.26-.856-.452a2.266 2.266 0 01-.626-.722c-.16-.289-.24-.645-.24-1.069 0-.487.099-.907.298-1.26.199-.353.459-.642.78-.867a3.43 3.43 0 011.097-.5 4.928 4.928 0 013.166.221c.61.257 1.082.63 1.415 1.117l-1.251 1.059z" fill="#fbfefe"/>
    <path d="M106.539 19.238c2.05-1.15 3.7-1.15 4.949 0l-4.95 2.293c-2.05-.378-2.05-1.143 0-2.293z" fill="#f6fcfd"/>
  </g>
</svg>
