<svg xmlns="http://www.w3.org/2000/svg" viewBox="0 0 50 51">
  <path d="M45 9.656c-2.675-.062-4.8-2.238-4.772-4.88.03-2.642 2.204-4.771 4.878-4.776 1.321.02 2.58.56 3.497 1.5A4.884 4.884 0 0150 5.005c-.1 2.642-2.326 4.713-5 4.65zM4.77 50.855c-2.673-.06-4.8-2.238-4.77-4.882.032-2.647 2.21-4.774 4.886-4.774 2.745.05 4.928 2.286 4.884 4.998-.095 2.644-2.324 4.72-5 4.658zm8.7-17.557a14.253 14.253 0 01-2.244-7.694c-.127-7.65 6.033-13.958 13.774-14.106 2.678.005 5.292.805 7.505 2.296l5.317-5.444a20.756 20.756 0 00-12.838-4.452c-11.922.21-21.415 9.933-21.2 21.716A21.908 21.908 0 008.14 38.749l5.332-5.451zM36.529 17.91a14.23 14.23 0 012.245 7.693c.128 7.654-6.044 13.965-13.79 14.102a13.448 13.448 0 01-7.502-2.296l-5.317 5.446a20.783 20.783 0 0012.82 4.462c5.727-.102 11.178-2.446 15.153-6.519a21.207 21.207 0 006.051-15.2 21.9 21.9 0 00-4.35-13.137l-5.31 5.449z" fill="#00c0d2" fill-rule="nonzero"/>
</svg>
