<svg xmlns="http://www.w3.org/2000/svg" viewBox="0 0 75 75">
  <g fill="none" fill-rule="evenodd">
    <circle fill="#f2fbfc" cx="37.5" cy="37.5" r="37.5"/>
    <path d="M51.5 26.807a3.413 3.413 0 01-3.34-3.44A3.414 3.414 0 0151.574 20a3.482 3.482 0 012.448 1.058c.644.661.994 1.551.977 2.47a3.415 3.415 0 01-3.5 3.28zM23.34 55.853A3.41 3.41 0 0120 52.41a3.413 3.413 0 013.42-3.366 3.475 3.475 0 013.42 3.524 3.414 3.414 0 01-3.5 3.284zm6.09-12.378a10.101 10.101 0 01-1.57-5.424c-.09-5.393 4.222-9.84 9.64-9.945a9.384 9.384 0 015.254 1.619l3.722-3.838a14.464 14.464 0 00-8.987-3.14c-8.345.15-14.99 7.004-14.84 15.31a15.519 15.519 0 003.049 9.26l3.731-3.842zm16.14-10.848a10.085 10.085 0 011.572 5.424c.09 5.396-4.23 9.845-9.653 9.941a9.366 9.366 0 01-5.251-1.618l-3.723 3.84a14.483 14.483 0 008.974 3.145 15.146 15.146 0 0010.608-4.596 15.008 15.008 0 004.235-10.715 15.513 15.513 0 00-3.044-9.262l-3.718 3.841z" fill="#00c0d2" fill-rule="nonzero"/>
  </g>
</svg>
